<?xml version="1.0" encoding="UTF-8" standalone="no"?>
<svg width="100%" height="100%" viewBox="0 0 1920 1080" version="1.1" xmlns="http://www.w3.org/2000/svg" xmlns:xlink="http://www.w3.org/1999/xlink" xml:space="preserve" xmlns:serif="http://www.serif.com/" style="fill-rule:evenodd;clip-rule:evenodd;stroke-linejoin:round;stroke-miterlimit:2;">
    <g transform="matrix(8.47165,0,0,8.47165,960,568.469)">
        <g transform="matrix(1,0,0,1,-95,-29.5)">
            <g id="Screendesigns">
                <g id="_04_Login" serif:id="04_Login">
                    <g id="Group-18">
                        <path id="Fill-1" d="M104.102,12.641L86.508,12.641L86.508,6.725L94.443,6.725L94.443,0.151L87.022,0.151C84.087,0.151 81.859,0.882 80.334,2.352C78.809,3.823 78.048,6 78.048,8.898L78.048,12.641L73.816,12.641L73.816,19.214L78.048,19.214L78.048,42.653L86.508,42.653L86.508,19.214L95.641,19.214L95.641,47.511L91.182,47.511L91.182,54.089L95.641,54.089C98.614,54.089 100.766,53.382 102.102,51.973C103.434,50.562 104.102,48.526 104.102,45.854L104.102,12.641Z" style="fill:rgb(29,34,38);"/>
                        <path id="Fill-3" d="M143.123,14.758C141.791,16.167 141.122,18.205 141.122,20.876L141.122,42.653L149.583,42.653L149.583,19.22L158.843,19.22L158.843,12.641L149.583,12.641C146.61,12.641 144.458,13.348 143.123,14.758" style="fill:rgb(29,34,38);"/>
                        <path id="Fill-5" d="M127.87,30.706C127.87,32.613 127.413,34.079 126.5,35.108C125.583,36.135 124.288,36.652 122.61,36.652C120.932,36.652 119.637,36.135 118.723,35.108C117.808,34.079 117.35,32.613 117.35,30.706L117.35,24.588C117.35,22.685 117.808,21.216 118.723,20.187C119.637,19.159 120.932,18.643 122.61,18.643C124.288,18.643 125.583,19.159 126.5,20.187C127.413,21.216 127.87,22.685 127.87,24.588L127.87,30.706ZM132.928,16.153C131.729,14.804 130.261,13.762 128.527,13.041C126.792,12.32 124.819,11.957 122.61,11.957C120.4,11.957 118.428,12.32 116.694,13.041C114.959,13.762 113.493,14.804 112.291,16.153C111.09,17.512 110.167,19.159 109.52,21.104C108.871,23.044 108.548,25.216 108.548,27.617C108.548,30.017 108.871,32.195 109.52,34.135C110.167,36.08 111.09,37.736 112.291,39.109C113.493,40.48 114.959,41.527 116.694,42.253C118.428,42.98 120.4,43.342 122.61,43.342C124.819,43.342 126.792,42.98 128.527,42.253C130.261,41.527 131.729,40.48 132.928,39.109C134.129,37.736 135.054,36.08 135.701,34.135C136.351,32.195 136.674,30.017 136.674,27.617C136.674,25.216 136.351,23.044 135.701,21.104C135.054,19.159 134.129,17.512 132.928,16.153Z" style="fill:rgb(29,34,38);"/>
                        <path id="Fill-7" d="M181.143,32.074C181.143,33.451 180.62,34.526 179.57,35.308C178.524,36.089 177.197,36.48 175.597,36.48C173.997,36.48 172.673,35.918 171.624,34.792C170.575,33.67 170.052,32.153 170.052,30.25L170.052,25.048C170.052,23.141 170.575,21.625 171.624,20.499C172.673,19.378 173.997,18.815 175.597,18.815C177.197,18.815 178.524,19.206 179.57,19.987C180.62,20.768 181.143,21.844 181.143,23.216L181.143,32.074ZM181.143,0.349L181.143,17.67L180.857,17.67C180.438,15.995 179.474,14.623 177.97,13.557C176.465,12.487 174.741,11.957 172.797,11.957C168.986,11.957 166.109,13.287 164.164,15.958C162.222,18.624 161.249,22.509 161.249,27.617C161.249,32.725 162.222,36.624 164.164,39.308C166.109,41.993 168.986,43.343 172.797,43.343C173.747,43.343 174.674,43.192 175.57,42.914C176.465,42.626 177.265,42.225 177.97,41.709C178.675,41.193 179.275,40.588 179.771,39.881C180.265,39.174 180.629,38.42 180.857,37.62L181.143,37.62L181.143,42.653L189.603,42.653L189.603,0.349L181.143,0.349Z" style="fill:rgb(29,34,38);"/>
                        <path id="Fill-9" d="M0,16.166L37.58,42.445L51.163,26.278L11.757,0L0,16.166Z" style="fill:rgb(160,170,239);"/>
                        <g id="Group-13" transform="matrix(1,0,0,1,5.4,25.474)">
                            <path id="Fill-11" d="M0.173,16.971L12.201,32.4L17.43,26.157L11.929,0.805L0.173,16.971Z" style="fill:rgb(160,170,239);"/>
                        </g>
                        <path id="Fill-14" d="M48.209,16.166L0,16.166L11.758,0L61.79,0L48.209,16.166Z" style="fill:rgb(73,81,242);"/>
                        <path id="Fill-16" d="M37.581,42.445L5.573,42.445L17.33,26.279L51.163,26.279L37.581,42.445Z" style="fill:rgb(73,81,242);"/>
                    </g>
                </g>
            </g>
        </g>
    </g>
</svg>
